# xmcd
# 
# Track frame offsets:
#     150
#     21910
#     35753
#     49596
#     65600
#     80340
#     92524
#     109392
#     134939
#     155102
#     177005
#     193420
#     210250
#     228253
#     263051
#     294692
#     315147
# 
# Disc length: 4377
# 
# Revision: 0
# Processed by: cddbd v1.5.2PL0 Copyright (c) Steve Scherf et al.
# Submitted via: fre:ac v1.0.31
# 
DISCID=f3111711
DTITLE=Various Artist - Pfingstberg Blues - Red House
DYEAR=2018
DGENRE=Blues
TTITLE0=Pfingstberg Blues Allstars - Pfingstberg Blues
TTITLE1=Red and Grey - I Can't Be Satisfied
TTITLE2=Norbert Schneider - Herrgott schau obe auf mi
TTITLE3=Schuster/Schulz - Don't Cheap Yourself
TTITLE4=Nick Woodland - Bikes For Joey
TTITLE5=Patrick Ziegler - Fender Meets Steinway
TTITLE6=Töpelkings - Räp im Sitzen
TTITLE7=Timo Gross - Down To The Delta
TTITLE8=Bauer/Reffert/Schuster - Bluessänger sein
TTITLE9=Dan Popek - Dan's Boogie
TTITLE10=Down Home Percolators - Red On, Red, Ride On
TTITLE11=Schöne Mannheims - Feeling Good
TTITLE12=Netzer and Scheydt - Elmore's Grave
TTITLE13=Peter Karp - Her And My Blues
TTITLE14=Cobody - I Want You
TTITLE15=Miss Zippy and The Blues Wail - Chocolate Jesus
TTITLE16=Like Em - Parallels
EXTD=
EXTT0=
EXTT1=
EXTT2=
EXTT3=
EXTT4=
EXTT5=
EXTT6=
EXTT7=
EXTT8=
EXTT9=
EXTT10=
EXTT11=
EXTT12=
EXTT13=
EXTT14=
EXTT15=
EXTT16=
PLAYORDER=
